<?xml version="1.0" encoding="UTF-8"?><svg id="_图层_1" xmlns="http://www.w3.org/2000/svg" viewBox="0 0 828.5 512"><defs><style>.cls-1{opacity:.42;}.cls-2{fill:#c2f4ff;}.cls-3{fill:#fff;}.cls-4{opacity:.24;}.cls-5{fill:#00d0ff;}.cls-6{fill:#004354;}</style></defs><rect class="cls-2" width="828.5" height="512" rx="42" ry="42"/><circle class="cls-3" cx="414.25" cy="256" r="225"/><g class="cls-4"><circle class="cls-5" cx="414.25" cy="256" r="175"/></g><g class="cls-1"><circle class="cls-5" cx="414.25" cy="256" r="125"/></g><circle class="cls-5" cx="414.25" cy="256" r="75"/><g><path class="cls-6" d="M303.77,230.26l-1.66-4.97c6.7-1.73,12.38-4.39,17.71-8.79l2.81,4.39c-5.83,4.54-11.95,7.49-18.87,9.36Zm14.47-23.11l2.52,4.32c-4.75,3.38-9.72,5.76-15.19,7.42l-1.66-4.75c5.26-1.44,9.94-3.67,14.33-6.98Zm-13.03-16.85c1.44-.07,2.81-.22,4.25-.36l2.09-20.23h-2.66l.65-5.47h22.61l-.65,5.47h-2.38l-1.87,17.86c.79-.14,1.51-.36,2.3-.5l.22,5.26c-1.01,.22-2.09,.43-3.1,.65l-.5,4.39h-5.54l.36-3.46c-5.11,.79-10.3,1.37-15.62,1.8l-.14-5.4Zm20.38,13.97c-5.69,.65-11.45,1.08-17.21,1.37l-.65-5.62c13.32-.5,26.28-2.09,38.23-4.61l1.15,5.26c-4.9,1.15-10.08,2.09-15.48,2.81l-.14,1.22c.94,2.88,2.16,5.4,3.6,7.63,3.96-2.23,7.42-5.04,10.37-8.5l4.25,3.38c-3.24,3.6-7.06,6.62-11.52,9.22,3.46,3.82,7.63,6.62,11.95,8.86l-3.46,5.04c-7.06-3.96-13.11-9.14-16.2-15.99l-1.8,17.14h-5.98l2.88-27.22Zm-10.51-14.91c2.16-.22,4.32-.5,6.48-.86l.29-3.02h-6.41l-.36,3.89Zm7.27-8.64l.36-3.24h-6.41l-.36,3.24h6.41Zm.86-7.99l.29-3.02h-6.41l-.29,3.02h6.41Zm7.92,17.86c3.38-1.8,6.48-4.32,9.07-7.27-2.52-2.59-4.97-4.97-7.42-7.13l4.03-3.89c2.23,2.02,4.54,4.1,6.77,6.41,1.58-2.59,2.81-5.33,3.6-8.14h-13.83l.72-5.83h14.47c4.46,0,5.62,2.52,4.46,6.41-1.3,4.39-3.1,8.28-5.33,11.74,2.23,2.38,4.32,4.82,6.34,7.27l-3.96,4.18c-1.94-2.3-3.96-4.61-5.98-6.84-2.74,2.95-5.9,5.4-9.5,7.49l-3.46-4.39Z"/><path class="cls-6" d="M359.78,191.52c11.52-8.06,22.18-19.15,28.01-30.46l5.47,3.02c-.5,1.08-1.01,2.16-1.66,3.24,4.68,8.64,13.18,17.93,22.18,24.48l-4.03,5.62c-3.53-2.66-6.91-5.62-10.01-8.86l-.58,5.69h-25.92l.5-5.04c-3.31,2.95-6.77,5.62-10.23,7.99l-3.74-5.69Zm41.12,39.24h-35.36l3.02-28.66h28.88c4.61,0,6.34,2.59,5.9,6.26l-2.45,22.39Zm-5.9-6.55l1.66-15.63h-22.18l-1.58,15.63h22.11Zm4.1-36.29c-4.32-4.54-8.14-9.43-11.16-14.62-3.53,5.18-7.99,10.15-12.75,14.62h23.91Z"/><path class="cls-6" d="M468.65,190.73h-47.24l.65-6.12h11.88c-.58-3.24-1.08-6.62-1.3-9.79h-7.63l.65-6.12h18.65l.72-6.98h6.62l-.72,6.98h18.72l-.65,6.12h-7.92c-1.01,3.38-2.3,6.55-3.89,9.79h12.1l-.65,6.12Zm-9.94,40.68h-34.85l3.74-34.99h29.09c3.67,0,5.47,2.66,5.11,6.41l-3.1,28.59Zm-5.62-6.62l.86-8.42h-22.11l-.86,8.42h22.11Zm1.51-14.4l.79-7.34h-22.18l-.79,7.34h22.18Zm-4.1-25.78c1.66-3.24,3.02-6.48,4.18-9.79h-15.7c.29,3.24,.72,6.55,1.3,9.79h10.22Z"/><path class="cls-6" d="M474.77,223.78c4.97-6.7,8.28-13.97,11.02-21.67l5.83,2.3c-2.59,7.99-5.91,15.7-11.45,23.26l-5.4-3.89Zm19.08,1.51c1.73,0,2.81-1.22,3.24-5.62l2.38-22.32h-18.07l6.41-30.39h2.66c12.1-.79,22.97-2.59,33.92-5.33l1.51,6.05c-9.86,2.88-21.24,4.82-32.91,5.62l-3.75,17.64h10.87l1.44-13.61h6.41l-1.44,13.61h16.92l-.65,6.41h-16.92l-2.45,23.26c-.72,7.06-3.38,10.87-8.86,10.87-4.39,0-7.85-2.66-9.07-8.42l5.47-1.15c.58,2.16,1.66,3.38,2.88,3.38Zm29.02-.65l-5.98,2.59c-2.66-7.78-4.82-15.27-6.77-22.9l6.05-1.73c2.16,8.57,4.32,15.91,6.7,22.03Z"/><path class="cls-6" d="M266.36,314.21h-7.2l9.14-58.18h8.21l5.4,36.29,16.2-36.29h8.64l-8.35,58.18h-7.2l6.7-38.81c.29-1.66,.86-5.26,1.37-7.92-1.22,2.59-3.02,6.34-3.74,7.92l-12.46,26.64h-5.26l-4.32-26.71c-.29-1.73-1.08-5.83-1.44-8.42-.14,2.23-.5,5.83-.86,8.42l-4.82,38.88Z"/><path class="cls-6" d="M318.64,314.93c-10.95,0-12.46-9.72-10.8-22.97,1.66-13.25,6.34-22.39,16.49-22.39s12.46,9.15,10.3,24.48h-20.16c-.86,7.49-.79,14.4,4.82,14.4,3.46,0,5.98-2.38,7.49-7.06l6.41,.94c-2.3,7.99-7.63,12.6-14.54,12.6Zm-3.24-26.79h12.74c.65-6.91-.07-12.1-4.39-12.1s-6.77,4.18-8.35,12.1Z"/><path class="cls-6" d="M337.71,314.21l6.19-44.14h6.84l-.79,5.54c2.81-4.18,6.77-5.9,11.02-5.9l-.94,7.13c-5.33-.65-10.01,2.59-11.59,9.86l-3.89,27.51h-6.84Z"/><path class="cls-6" d="M368.53,329.33c-6.05,0-10.66-3.96-12.6-10.66l6.77-2.16c1.15,3.89,3.6,6.19,6.48,6.19,4.18,0,7.34-3.46,8.21-12.6-2.16,2.95-4.82,4.82-7.78,4.82-6.41,0-11.59-5.62-9.07-23.76,2.02-14.62,7.7-21.53,14.76-21.53,3.17,0,5.54,1.51,6.98,4.39l.5-3.74h6.98l-5.69,39.75c-1.73,12.31-6.05,19.3-15.55,19.3Zm2.95-20.88c3.53,0,5.98-4.32,7.13-8.78l2.3-16.06c.07-4.39-1.73-7.49-4.97-7.49-4.54,0-7.13,7.2-8.28,15.84-1.22,9.29-1.3,16.49,3.82,16.49Z"/><path class="cls-6" d="M403.31,314.93c-10.95,0-12.46-9.72-10.8-22.97s6.34-22.39,16.49-22.39,12.46,9.15,10.3,24.48h-20.16c-.86,7.49-.79,14.4,4.82,14.4,3.46,0,5.98-2.38,7.49-7.06l6.41,.94c-2.3,7.99-7.63,12.6-14.54,12.6Zm-3.24-26.79h12.75c.65-6.91-.07-12.1-4.39-12.1s-6.77,4.18-8.35,12.1Z"/><path class="cls-6" d="M429.95,314.21h-7.2l9.15-58.18h8.21l5.4,36.29,16.2-36.29h8.64l-8.35,58.18h-7.2l6.7-38.81c.29-1.66,.86-5.26,1.37-7.92-1.22,2.59-3.02,6.34-3.74,7.92l-12.46,26.64h-5.26l-4.32-26.71c-.29-1.73-1.08-5.83-1.44-8.42-.14,2.23-.5,5.83-.86,8.42l-4.82,38.88Z"/><path class="cls-6" d="M499.36,270.29l-6.26,43.92h-6.55l.36-4.25c-2.38,3.6-5.47,4.97-8.28,4.97-5.18,0-9.29-3.38-7.92-12.96l4.46-31.68h7.06l-4.39,30.53c-.72,5.04,.5,7.63,3.67,7.63s5.47-3.17,6.55-7.7l4.32-30.46h6.98Z"/><path class="cls-6" d="M510.44,308.52c2.16,0,4.32-1.3,4.82-4.54,1.73-9.58-14.76-12.6-11.88-25.71,1.3-6.12,6.41-8.71,11.52-8.71,5.76,0,11.31,3.6,10.66,12.1h-6.19c.14-4.1-2.02-5.9-4.46-5.9-2.02,0-3.89,.94-4.46,4.03-1.37,7.63,14.26,11.81,12.1,24.63-1.15,7.13-6.98,10.51-12.67,10.51-5.98,0-11.45-3.82-11.45-12.02l6.55-.29c.22,3.82,2.66,5.9,5.47,5.9Z"/><path class="cls-6" d="M526.07,314.21l6.19-43.92h6.98l-6.19,43.92h-6.98Zm6.7-53.57c.43-2.81,2.09-4.9,5.04-4.9,2.74,0,4.18,2.09,3.74,4.9-.43,2.88-2.09,4.9-5.04,4.9-2.74,0-4.18-2.02-3.74-4.9Z"/><path class="cls-6" d="M553.43,314.93c-9.36,0-12.67-7.13-10.66-22.61,2.02-15.63,7.2-22.75,16.35-22.75,6.84,0,10.37,4.68,10.94,11.45l-6.7,1.08c-.29-3.17-1.44-6.05-4.82-6.05-4.25,0-6.99,5.11-8.57,16.27-1.58,11.09-.5,16.13,4.25,16.13,2.74,0,5.33-2.3,6.62-6.62l6.34,.94c-1.94,7.49-6.77,12.17-13.75,12.17Z"/></g></svg>